<svg id="Layer_1" data-name="Layer 1" xmlns="http://www.w3.org/2000/svg" xmlns:xlink="http://www.w3.org/1999/xlink" viewBox="0 0 500 500"><defs><style>.cls-1,.cls-16{fill:none;}.cls-2{clip-path:url(#clip-path);}.cls-3{opacity:0;}.cls-4{isolation:isolate;}.cls-5{clip-path:url(#clip-path-3);}.cls-6{clip-path:url(#clip-path-4);}.cls-7{clip-path:url(#clip-path-5);}.cls-8{fill:#ee3324;}.cls-9{clip-path:url(#clip-path-8);}.cls-10{fill:#f7ba17;}.cls-11{clip-path:url(#clip-path-11);}.cls-12{fill:#72bf44;}.cls-13{clip-path:url(#clip-path-14);}.cls-14{fill:#4899d4;}.cls-15{clip-path:url(#clip-path-17);}.cls-16{stroke:#000;stroke-width:0.5px;}.cls-17{clip-path:url(#clip-path-20);}.cls-18{clip-path:url(#clip-path-21);}.cls-19{font-size:15.4px;font-family:Helvetica;}.cls-20{clip-path:url(#clip-path-23);}.cls-21{clip-path:url(#clip-path-26);}.cls-22{clip-path:url(#clip-path-27);}.cls-23{clip-path:url(#clip-path-29);}.cls-24{clip-path:url(#clip-path-32);}.cls-25{clip-path:url(#clip-path-33);}.cls-26{clip-path:url(#clip-path-35);}.cls-27{clip-path:url(#clip-path-38);}.cls-28{clip-path:url(#clip-path-39);}.cls-29{clip-path:url(#clip-path-40);}.cls-30,.cls-33{font-size:12.83px;font-family:HelveticaNeue, Helvetica Neue;}.cls-31{clip-path:url(#clip-path-43);}.cls-32{clip-path:url(#clip-path-46);}.cls-33{letter-spacing:-0.06em;}.cls-34{letter-spacing:0em;}.cls-35{clip-path:url(#clip-path-49);}</style><clipPath id="clip-path"><rect class="cls-1" x="10.27" y="12.91" width="479.46" height="474.17"/></clipPath><clipPath id="clip-path-3"><rect class="cls-1" x="60.32" y="80.25" width="379.89" height="349.08"/></clipPath><clipPath id="clip-path-4"><rect class="cls-1" x="10.27" y="12.23" width="479.99" height="474.86"/></clipPath><clipPath id="clip-path-5"><rect class="cls-1" x="192.51" y="81.53" width="57.75" height="50.05"/></clipPath><clipPath id="clip-path-8"><rect class="cls-1" x="60.32" y="90.52" width="147.59" height="288.76"/></clipPath><clipPath id="clip-path-11"><rect class="cls-1" x="141.17" y="345.91" width="166.84" height="83.42"/></clipPath><clipPath id="clip-path-14"><rect class="cls-1" x="248.98" y="80.25" width="191.23" height="328.55"/></clipPath><clipPath id="clip-path-17"><rect class="cls-1" x="46.2" y="64.85" width="174.54" height="12.83"/></clipPath><clipPath id="clip-path-20"><rect class="cls-1" x="3.85" y="54.58" width="47.49" height="25.67"/></clipPath><clipPath id="clip-path-21"><rect class="cls-1" x="17.97" y="57.15" width="25.67" height="19.25"/></clipPath><clipPath id="clip-path-23"><rect class="cls-1" x="47.49" y="217.57" width="29.52" height="3.85"/></clipPath><clipPath id="clip-path-26"><rect class="cls-1" x="-5.13" y="207.31" width="55.19" height="25.67"/></clipPath><clipPath id="clip-path-27"><rect class="cls-1" x="10.27" y="209.87" width="33.37" height="19.25"/></clipPath><clipPath id="clip-path-29"><rect class="cls-1" x="46.2" y="422.92" width="174.54" height="11.55"/></clipPath><clipPath id="clip-path-32"><rect class="cls-1" x="-5.13" y="420.35" width="55.19" height="25.67"/></clipPath><clipPath id="clip-path-33"><rect class="cls-1" x="10.27" y="422.92" width="33.37" height="19.25"/></clipPath><clipPath id="clip-path-35"><rect class="cls-1" x="422.24" y="217.57" width="30.8" height="3.85"/></clipPath><clipPath id="clip-path-38"><rect class="cls-1" x="442.77" y="207.31" width="55.19" height="25.67"/></clipPath><clipPath id="clip-path-39"><rect class="cls-1" x="456.89" y="209.87" width="33.37" height="19.25"/></clipPath><clipPath id="clip-path-40"><ellipse class="cls-1" cx="34.65" cy="41.11" rx="6.42" ry="5.78"/></clipPath><clipPath id="clip-path-43"><ellipse class="cls-1" cx="183.53" cy="41.11" rx="6.42" ry="5.78"/></clipPath><clipPath id="clip-path-46"><ellipse class="cls-1" cx="252.83" cy="41.11" rx="6.42" ry="5.78"/></clipPath><clipPath id="clip-path-49"><circle class="cls-1" cx="353.58" cy="41.11" r="5.78"/></clipPath></defs><title>Artboard 1</title><g class="cls-2"><rect class="cls-3" x="10.27" y="13.51" width="479.99" height="473.57"/></g><g class="cls-2"><g class="cls-4"><g class="cls-5"><g class="cls-6"><g class="cls-4"><g class="cls-7"><g class="cls-6"><path class="cls-8" d="M250.26,123.57v-42a168.31,168.31,0,0,0-57.5,10.14l14.38,39.5a126.06,126.06,0,0,1,43.12-7.6"/></g></g></g></g><g class="cls-6"><g class="cls-4"><g class="cls-9"><g class="cls-6"><path class="cls-10" d="M207.14,131.17l-14.38-39.5a168.14,168.14,0,0,0-50.57,286.78l27-32.2a126.09,126.09,0,0,1,37.93-215.08"/></g></g></g></g><g class="cls-6"><g class="cls-4"><g class="cls-11"><g class="cls-6"><path class="cls-12" d="M169.21,346.25l-27,32.2a168.11,168.11,0,0,0,165.57,29.19l-14.37-39.49a126.09,126.09,0,0,1-124.18-21.9"/></g></g></g></g><g class="cls-6"><g class="cls-4"><g class="cls-13"><g class="cls-6"><path class="cls-14" d="M293.39,368.15l14.37,39.49a168.12,168.12,0,0,0-57.5-326.11v42a126.09,126.09,0,0,1,43.13,244.58"/></g></g></g></g></g></g></g><g class="cls-2"><g class="cls-4"><g class="cls-15"><g class="cls-6"><polyline class="cls-16" points="218.82 76.4 218.82 66.78 48.13 66.78"/></g></g></g></g><g class="cls-2"><g class="cls-4"><g class="cls-17"><g class="cls-18"><text class="cls-19" transform="translate(19.25 72.55)">6%</text></g></g></g></g><g class="cls-2"><g class="cls-4"><g class="cls-20"><g class="cls-6"><line class="cls-16" x1="75.72" y1="219.5" x2="48.77" y2="219.5"/></g></g></g></g><g class="cls-2"><g class="cls-4"><g class="cls-21"><g class="cls-22"><text class="cls-19" transform="translate(10.27 225.27)">33%</text></g></g></g></g><g class="cls-2"><g class="cls-4"><g class="cls-23"><g class="cls-6"><polyline class="cls-16" points="218.82 424.2 218.82 432.54 48.13 432.54"/></g></g></g></g><g class="cls-2"><g class="cls-4"><g class="cls-24"><g class="cls-25"><text class="cls-19" transform="translate(10.27 438.32)">17%</text></g></g></g></g><g class="cls-2"><g class="cls-4"><g class="cls-26"><g class="cls-6"><line class="cls-16" x1="423.52" y1="219.5" x2="451.76" y2="219.5"/></g></g></g></g><g class="cls-2"><g class="cls-4"><g class="cls-27"><g class="cls-28"><text class="cls-19" transform="translate(458.17 225.27)">44%</text></g></g></g></g><g class="cls-29"><g class="cls-2"><ellipse class="cls-14" cx="34.65" cy="41.11" rx="6.42" ry="5.78"/></g></g><g class="cls-2"><text class="cls-30" transform="translate(48.77 45.6)">People in the photos</text></g><g class="cls-31"><g class="cls-2"><ellipse class="cls-12" cx="183.53" cy="41.11" rx="6.42" ry="5.78"/></g></g><g class="cls-2"><text class="cls-30" transform="translate(197.64 45.6)">Events</text></g><g class="cls-32"><g class="cls-2"><ellipse class="cls-10" cx="252.83" cy="41.11" rx="6.42" ry="5.78"/></g></g><g class="cls-2"><text class="cls-33" transform="translate(266.95 45.6)">W<tspan class="cls-34" x="11.17" y="0">orkspaces</tspan></text></g><g class="cls-35"><g class="cls-2"><circle class="cls-8" cx="353.58" cy="41.11" r="5.78"/></g></g><g class="cls-2"><text class="cls-30" transform="translate(368.34 45.6)">Member Spotlight</text></g><g class="cls-2"><rect class="cls-3" x="10.27" y="13.51" width="479.99" height="473.57"/></g><g class="cls-2"><g class="cls-4"><g class="cls-5"><g class="cls-6"><g class="cls-4"><g class="cls-7"><g class="cls-6"><path class="cls-8" d="M250.26,123.57v-42a168.31,168.31,0,0,0-57.5,10.14l14.38,39.5a126.06,126.06,0,0,1,43.12-7.6"/></g></g></g></g><g class="cls-6"><g class="cls-4"><g class="cls-9"><g class="cls-6"><path class="cls-10" d="M207.14,131.17l-14.38-39.5a168.14,168.14,0,0,0-50.57,286.78l27-32.2a126.09,126.09,0,0,1,37.93-215.08"/></g></g></g></g><g class="cls-6"><g class="cls-4"><g class="cls-11"><g class="cls-6"><path class="cls-12" d="M169.21,346.25l-27,32.2a168.11,168.11,0,0,0,165.57,29.19l-14.37-39.49a126.09,126.09,0,0,1-124.18-21.9"/></g></g></g></g><g class="cls-6"><g class="cls-4"><g class="cls-13"><g class="cls-6"><path class="cls-14" d="M293.39,368.15l14.37,39.49a168.12,168.12,0,0,0-57.5-326.11v42a126.09,126.09,0,0,1,43.13,244.58"/></g></g></g></g></g></g></g><g class="cls-2"><g class="cls-4"><g class="cls-15"><g class="cls-6"><polyline class="cls-16" points="218.82 76.4 218.82 66.78 48.13 66.78"/></g></g></g></g><g class="cls-2"><g class="cls-4"><g class="cls-17"><g class="cls-18"><text class="cls-19" transform="translate(19.25 72.55)">6%</text></g></g></g></g><g class="cls-2"><g class="cls-4"><g class="cls-20"><g class="cls-6"><line class="cls-16" x1="75.72" y1="219.5" x2="48.77" y2="219.5"/></g></g></g></g><g class="cls-2"><g class="cls-4"><g class="cls-21"><g class="cls-22"><text class="cls-19" transform="translate(10.27 225.27)">33%</text></g></g></g></g><g class="cls-2"><g class="cls-4"><g class="cls-23"><g class="cls-6"><polyline class="cls-16" points="218.82 424.2 218.82 432.54 48.13 432.54"/></g></g></g></g><g class="cls-2"><g class="cls-4"><g class="cls-24"><g class="cls-25"><text class="cls-19" transform="translate(10.27 438.32)">17%</text></g></g></g></g><g class="cls-2"><g class="cls-4"><g class="cls-26"><g class="cls-6"><line class="cls-16" x1="423.52" y1="219.5" x2="451.76" y2="219.5"/></g></g></g></g><g class="cls-2"><g class="cls-4"><g class="cls-27"><g class="cls-28"><text class="cls-19" transform="translate(458.17 225.27)">44%</text></g></g></g></g><g class="cls-29"><g class="cls-2"><ellipse class="cls-14" cx="34.65" cy="41.11" rx="6.42" ry="5.78"/></g></g><g class="cls-2"><text class="cls-30" transform="translate(48.77 45.6)">People in the photos</text></g><g class="cls-31"><g class="cls-2"><ellipse class="cls-12" cx="183.53" cy="41.11" rx="6.42" ry="5.78"/></g></g><g class="cls-2"><text class="cls-30" transform="translate(197.64 45.6)">Events</text></g><g class="cls-32"><g class="cls-2"><ellipse class="cls-10" cx="252.83" cy="41.11" rx="6.42" ry="5.78"/></g></g><g class="cls-2"><text class="cls-33" transform="translate(266.95 45.6)">W<tspan class="cls-34" x="11.17" y="0">orkspaces</tspan></text></g><g class="cls-35"><g class="cls-2"><circle class="cls-8" cx="353.58" cy="41.11" r="5.78"/></g></g><g class="cls-2"><text class="cls-30" transform="translate(368.34 45.6)">Member Spotlight</text></g></svg>