<svg id="Layer_1" data-name="Layer 1" xmlns="http://www.w3.org/2000/svg" viewBox="0 0 1709 1611"><defs><style>.cls-1{fill:#fff;stroke:#000;stroke-miterlimit:10;}.cls-2{fill:#1f5b74;}.cls-3{fill:#efcfaa;}.cls-4{fill:#ecd7bc;}.cls-5{fill:#242023;}.cls-6{fill:#bcb6a0;}.cls-7{fill:#dba896;}.cls-8{fill:#54441e;}.cls-9{fill:#e9ae54;}.cls-10{fill:#c0c4ae;}.cls-11{fill:#073f40;}.cls-12{fill:#ee5830;}.cls-13{fill:#f48435;}.cls-14{fill:#fec000;}.cls-15{fill:#f9ee00;}.cls-16{fill:#e3e4e6;}.cls-17{fill:#8fa39f;}.cls-18{fill:#aeafb3;}.cls-19{fill:#f8d4d0;}.cls-20{fill:#ffe3d4;}.cls-21{fill:#fff1df;}.cls-22{fill:#a36f9f;}.cls-23{fill:#0084b7;}.cls-24{fill:#e9b2ac;}</style></defs><title>colour</title><rect class="cls-1" x="1.32" y="0.76" width="153" height="522"/><rect class="cls-1" x="154.82" y="0.26" width="153" height="522"/><rect class="cls-1" x="307.82" y="0.26" width="153" height="522"/><rect class="cls-2" x="1.32" y="0.76" width="153" height="522"/><rect class="cls-3" x="154.82" y="0.26" width="153" height="522"/><rect class="cls-4" x="307.82" y="0.26" width="153" height="522"/><rect class="cls-5" x="460.57" y="1.3" width="153" height="522"/><rect class="cls-6" x="614.07" y="0.8" width="153" height="522"/><rect class="cls-1" x="-0.35" y="542.61" width="153" height="522"/><rect class="cls-1" x="153.15" y="542.11" width="153" height="522"/><rect class="cls-1" x="306.15" y="542.11" width="153" height="522"/><rect class="cls-7" x="-0.35" y="542.61" width="153" height="522"/><rect class="cls-8" x="153.15" y="542.11" width="153" height="522"/><rect class="cls-9" x="306.15" y="542.11" width="153" height="522"/><rect class="cls-10" x="458.89" y="543.14" width="153" height="522"/><rect class="cls-2" x="612.39" y="542.64" width="153" height="522"/><rect class="cls-1" x="-0.27" y="1088.26" width="153" height="522"/><rect class="cls-1" x="153.23" y="1087.76" width="153" height="522"/><rect class="cls-1" x="306.23" y="1087.76" width="153" height="522"/><rect class="cls-11" x="-0.27" y="1088.26" width="153" height="522"/><rect class="cls-12" x="153.23" y="1087.76" width="153" height="522"/><rect class="cls-13" x="306.23" y="1087.76" width="153" height="522"/><rect class="cls-14" x="458.98" y="1088.8" width="153" height="522"/><rect class="cls-15" x="612.48" y="1088.3" width="153" height="522"/><rect class="cls-1" x="790.13" y="2.3" width="153" height="522"/><rect class="cls-1" x="943.63" y="1.8" width="153" height="522"/><rect class="cls-1" x="1096.63" y="1.8" width="153" height="522"/><rect class="cls-16" x="790.13" y="2.3" width="153" height="522"/><rect class="cls-17" x="943.63" y="1.8" width="153" height="522"/><rect class="cls-18" x="1096.63" y="1.8" width="153" height="522"/><rect class="cls-19" x="1249.38" y="2.83" width="153" height="522"/><rect class="cls-20" x="1402.88" y="2.33" width="153" height="522"/><rect class="cls-21" x="1556.09" y="2.71" width="153" height="522"/><rect class="cls-1" x="790.01" y="541.48" width="153" height="522"/><rect class="cls-1" x="943.51" y="540.98" width="153" height="522"/><rect class="cls-1" x="1096.51" y="540.98" width="153" height="522"/><rect class="cls-22" x="790.01" y="541.48" width="153" height="522"/><rect class="cls-23" x="943.51" y="540.98" width="153" height="522"/><rect class="cls-24" x="1096.51" y="540.98" width="153" height="522"/><rect class="cls-19" x="1249.25" y="542.01" width="153" height="522"/><rect class="cls-20" x="1402.75" y="541.51" width="153" height="522"/><rect class="cls-21" x="1555.96" y="541.89" width="153" height="522"/></svg>